<svg width="64" height="64" viewBox="0 0 64 64" fill="none" xmlns="http://www.w3.org/2000/svg">
<rect width="64" height="64" fill="white"/>
<path opacity="0.1" d="M51.7641 34.9493C50.7504 32.6257 49.4076 30.7778 47.7406 29.4079C46.0736 28.0361 44.1962 27.0695 42.1106 26.5014C41.1138 26.2312 40.1049 26.034 39.0839 25.9055L51.6746 4.28886H20.2099V14.2997H36.6548L24.9471 33.7875L25.2157 34.0556C26.1666 33.7575 27.1803 33.5045 28.2545 33.2966C29.3263 33.0864 30.7272 32.9836 32.4571 32.9836C35.6144 32.9836 38.0895 33.8775 39.8751 35.6652C41.663 37.4532 42.5582 39.8968 42.5582 42.9947C42.5582 45.3181 42.0501 47.301 41.0388 48.939C40.025 50.5786 38.7282 51.8304 37.1483 52.6922C35.5685 53.5584 33.8555 53.9893 32.0095 53.9893C29.8634 53.9893 27.8214 53.4536 25.8883 52.3794C23.9479 51.3076 22.4745 50.1455 21.4608 48.8937L16.1864 57.475C18.0348 59.4427 20.464 61.0226 23.4713 62.2125C26.4811 63.4043 29.4183 63.9999 32.278 63.9999C36.0306 63.9999 39.5025 63.1834 42.6913 61.5435C45.8777 59.9036 48.4423 57.5647 50.3778 54.5252C52.3134 51.4857 53.2835 47.8519 53.2835 43.6203C53.2835 40.1649 52.7779 37.273 51.7641 34.9493Z" fill="#1A41AD"/>
<path d="M28.632 61.8554C25.6488 61.8554 22.5543 61.2283 19.4333 59.9922C16.2929 58.7503 13.7113 57.0676 11.7612 54.9917L11.2 54.3948L17.6961 43.8256L18.6494 45.0026C19.5712 46.1414 20.9551 47.2256 22.7624 48.2246C24.5262 49.2044 26.4109 49.7009 28.3658 49.7009C30.0231 49.7009 31.5812 49.3087 32.9893 48.536C34.3974 47.7673 35.5709 46.6314 36.483 45.1584C37.383 43.6983 37.8427 41.8878 37.8427 39.7779C37.8427 36.9493 37.0661 34.7999 35.4741 33.2067C33.8821 31.6135 31.7022 30.8388 28.8134 30.8388C27.1537 30.8388 25.8085 30.9375 24.8189 31.1318C23.7834 31.3321 22.7987 31.5777 21.8914 31.8617L21.272 32.0555L19.9535 30.7367L31.1191 12.1547H15.4944V0H49.8963L37.1508 21.8784C37.6903 21.9842 38.225 22.1083 38.7476 22.25C40.9759 22.8576 43.0058 23.9047 44.7792 25.3636L45.6067 26.0447L44.2445 27.7003L43.4171 27.0192C41.8783 25.7541 40.1194 24.8456 38.1839 24.3189C37.2548 24.0661 36.2846 23.8752 35.3047 23.752L33.6958 23.5498L46.1656 2.1441H17.6381V10.0111H34.9055L23.3455 29.2516C23.6939 29.1718 24.0495 29.0973 24.4076 29.0278C25.5472 28.8041 26.9892 28.6952 28.8134 28.6952C32.2514 28.6952 35.0023 29.7031 36.9911 31.6909C38.9774 33.6785 39.9863 36.3994 39.9863 39.7779C39.9863 42.2919 39.4202 44.4812 38.3048 46.2856C37.1967 48.0787 35.7547 49.4684 34.02 50.4163C32.2901 51.3635 30.3884 51.8443 28.3658 51.8443C26.0431 51.8443 23.81 51.2573 21.7221 50.0999C20.2341 49.2765 18.9832 48.3847 17.9913 47.4387L13.8952 54.1019C15.5549 55.6844 17.6792 56.9935 20.2244 57.9991C23.0915 59.1355 25.9198 59.7115 28.632 59.7115C32.203 59.7115 35.5418 58.9252 38.5564 57.3739C41.5614 55.8284 44.0074 53.594 45.8293 50.7325L46.4051 49.8289L48.2124 50.9801L47.6366 51.8842C45.6091 55.0701 42.8824 57.5582 39.5363 59.2799C36.2169 60.9888 32.5466 61.8554 28.632 61.8554Z" fill="#1A41AD"/>
</svg>
