<svg width="64" height="64" viewBox="0 0 64 64" fill="none" xmlns="http://www.w3.org/2000/svg">
<rect width="64" height="64" fill="white"/>
<path opacity="0.1" d="M39.3462 42.3669H28.4252L39.3462 28.1398V42.3669ZM49.8052 42.3669V4.28789H49.6237L13.0646 50.2337H39.3462V64H49.8052V50.324H57.1335V42.3669H49.8052Z" fill="#1A41AD"/>
<path d="M47.2333 61.8549H34.6308V48.0892H7.19995L45.4648 0H47.2333V13.4699H45.0898V3.91552L11.6443 45.9456H36.7744V59.7114H45.0898V46.0351H52.4181V40.2231H45.0898V38.0795H54.5616V48.1787H47.2333V61.8549Z" fill="#1A41AD"/>
<path d="M27.6002 37.0066H35.272V27.0083L27.6002 37.0066ZM37.418 39.1504H23.2526L37.418 20.6949V39.1504Z" fill="#1A41AD"/>
</svg>
