<svg width="42" height="42" viewBox="0 0 42 42" fill="none" xmlns="http://www.w3.org/2000/svg">
<path d="M41.475 40.9497H39.4406V37.9394C40.8554 37.6898 41.9344 36.4545 41.9344 34.9694C41.9344 33.3049 40.5803 31.9507 38.9156 31.9507C37.2509 31.9507 35.8969 33.3049 35.8969 34.9694C35.8969 36.4545 36.9758 37.6898 38.3906 37.9394V40.9497H35.0171V8.13724C35.0171 8.02753 34.9827 7.92037 34.9187 7.83117L29.4569 0.218921C29.3585 0.0815185 29.1995 0 29.0303 0H12.9697C12.8005 0 12.6415 0.0815185 12.5431 0.218921L7.08135 7.83117C7.01726 7.92037 6.98291 8.02753 6.98291 8.13724V40.9497H3.54375V37.9394C4.95853 37.6898 6.0375 36.4545 6.0375 34.9694C6.0375 33.3049 4.68347 31.9507 3.01875 31.9507C1.35403 31.9507 0 33.3049 0 34.9694C0 36.4545 1.07897 37.6898 2.49375 37.9394V40.9497H0.525C0.234814 40.9497 0 41.1848 0 41.4747C0 41.7647 0.234814 41.9997 0.525 41.9997H41.475C41.7652 41.9997 42 41.7647 42 41.4747C42 41.1848 41.7652 40.9497 41.475 40.9497ZM36.9469 34.9694C36.9469 33.8838 37.8302 33.0007 38.9156 33.0007C40.001 33.0007 40.8844 33.8838 40.8844 34.9694C40.8844 36.055 40.001 36.9382 38.9156 36.9382C37.8302 36.9382 36.9469 36.055 36.9469 34.9694ZM1.05 34.9694C1.05 33.8838 1.93337 33.0007 3.01875 33.0007C4.10413 33.0007 4.9875 33.8838 4.9875 34.9694C4.9875 36.055 4.10413 36.9382 3.01875 36.9382C1.93337 36.9382 1.05 36.055 1.05 34.9694ZM33.9671 18.6644H29.5851V13.3337H33.9671V18.6644ZM28.5351 18.6644H24.1264V13.3337H28.5351V18.6644ZM23.0764 18.6644H18.6683V13.3337H23.0764V18.6644ZM17.6183 18.6644H13.2101V13.3337H17.6183V18.6644ZM12.1601 18.6644H8.03291V13.3337H12.1601V18.6644ZM8.03291 19.7144H12.1601V24.9678H8.03291V19.7144ZM13.2101 19.7144H17.6183V24.9678H13.2101V19.7144ZM18.6683 19.7144H23.0764V24.9678H18.6683V19.7144ZM24.1264 19.7144H28.5351V24.9678H24.1264V19.7144ZM29.5851 19.7144H33.9671V24.9678H29.5851V19.7144ZM13.2393 1.05H28.7607L33.9671 8.30618V12.2837H8.03291V8.30618L13.2393 1.05ZM8.03291 26.0178H33.9671V40.9497H26.0224V30.349C26.0224 30.0591 25.7875 29.824 25.4974 29.824H16.5026C16.2125 29.824 15.9776 30.0591 15.9776 30.349V40.9497H8.03291V26.0178ZM21.4753 30.874H24.9724V40.9497H21.4753V30.874ZM20.4253 40.9497H17.0276V30.874H20.4253V40.9497Z" fill="#103EB4"/>
</svg>
