<svg width="41" height="41" viewBox="0 0 41 41" fill="none" xmlns="http://www.w3.org/2000/svg">
<path d="M7.63312 25.7175C3.42431 25.7175 0 29.1418 0 33.3506C0 37.5594 3.42431 40.9837 7.63312 40.9837C11.8419 40.9837 15.2662 37.5594 15.2662 33.3506C15.2662 31.3492 14.4858 29.5308 13.2209 28.168L15.3484 26.1258C16.7062 27.3664 18.5066 28.1305 20.4864 28.1305C22.3474 28.1305 24.0535 27.4591 25.3796 26.3482L27.4523 28.5074C26.3669 29.826 25.714 31.5134 25.714 33.3506C25.714 37.5594 29.1383 40.9837 33.3471 40.9837C37.5562 40.9837 40.9805 37.5594 40.9805 33.3506C40.9805 29.1418 37.5562 25.7175 33.3471 25.7175C31.3437 25.7175 29.5237 26.4994 28.1605 27.7664L26.1148 25.6353C27.3554 24.2775 28.1195 22.4772 28.1195 20.4974C28.1195 18.6363 27.4481 16.9302 26.3372 15.6042L28.5017 13.5263C29.8207 14.6127 31.5089 15.2662 33.3471 15.2662C37.5562 15.2662 40.9805 11.8419 40.9805 7.63312C40.9805 3.42431 37.5562 0 33.3471 0C29.1383 0 25.714 3.42431 25.714 7.63312C25.714 9.63555 26.4952 11.4547 27.7611 12.8177L25.6243 14.869C24.2665 13.6283 22.4662 12.8642 20.4864 12.8642C18.6253 12.8642 16.9192 13.5356 15.5932 14.6465L13.5199 12.4868C14.6103 11.1667 15.2662 9.47503 15.2662 7.63312C15.2662 3.42431 11.8419 0 7.63312 0C3.42431 0 0 3.42431 0 7.63312C0 11.8419 3.42431 15.2662 7.63312 15.2662C9.63183 15.2662 11.4479 14.4878 12.8101 13.2261L14.858 15.3594C13.6173 16.7173 12.8532 18.5176 12.8532 20.4974C12.8532 22.3584 13.5246 24.0645 14.6355 25.3906L12.4807 27.4591C11.1614 26.3716 9.47228 25.7175 7.63312 25.7175ZM3.65545 38.6158C3.7125 36.9053 4.82509 35.4352 6.47276 34.9351C6.67032 34.8751 6.81236 34.7025 6.83337 34.497C6.85438 34.2916 6.75009 34.0938 6.56879 33.995C5.7898 33.5709 5.30565 32.7569 5.30565 31.8711C5.30565 30.5385 6.38973 29.4544 7.7224 29.4544C9.05481 29.4544 10.1389 30.5385 10.1389 31.8711C10.1389 32.7834 9.63174 33.6082 8.81549 34.0238C8.63118 34.1176 8.52139 34.3129 8.53715 34.519C8.55265 34.725 8.6907 34.9013 8.88676 34.9664C10.479 35.4939 11.5544 36.9507 11.6109 38.6157C10.5027 39.4551 9.12733 39.9594 7.63312 39.9594C6.13894 39.9594 4.76363 39.4551 3.65545 38.6158ZM12.5373 37.7649C12.2501 36.3312 11.3588 35.0899 10.0796 34.3767C10.7633 33.7367 11.1632 32.8387 11.1632 31.8711C11.1632 29.9738 9.61973 28.4301 7.7224 28.4301C5.82506 28.4301 4.28133 29.9738 4.28133 31.8711C4.28133 32.8012 4.65619 33.6757 5.29764 34.3129C3.95554 35.0131 3.02166 36.2802 2.72794 37.7639C1.6728 36.5923 1.02432 35.0477 1.02432 33.3506C1.02432 29.7065 3.98899 26.7418 7.63312 26.7418C11.2772 26.7418 14.2419 29.7065 14.2419 33.3506C14.2419 35.0482 13.593 36.5933 12.5373 37.7649ZM29.3694 38.6158C29.4265 36.9053 30.5391 35.4352 32.1867 34.9351C32.3843 34.8751 32.5263 34.7025 32.5473 34.497C32.5684 34.2916 32.4641 34.0938 32.2828 33.995C31.5038 33.5709 31.0199 32.7569 31.0199 31.8711C31.0199 30.5385 32.104 29.4544 33.4364 29.4544C34.7688 29.4544 35.8529 30.5385 35.8529 31.8711C35.8529 32.7834 35.3457 33.6084 34.5295 34.0238C34.3454 34.1176 34.2354 34.3126 34.2511 34.5187C34.2666 34.725 34.4047 34.9013 34.6007 34.9664C36.1932 35.4936 37.2685 36.9506 37.3251 38.6156C36.2168 39.455 34.8414 39.9594 33.3471 39.9594C31.8529 39.9594 30.4776 39.4551 29.3694 38.6158ZM33.3471 26.7418C36.9912 26.7418 39.9562 29.7065 39.9562 33.3506C39.9562 35.0482 39.3073 36.5932 38.2515 37.7648C37.9642 36.3312 37.0728 35.0899 35.7939 34.3767C36.4773 33.737 36.8772 32.8387 36.8772 31.8711C36.8772 29.9738 35.3337 28.4301 33.4364 28.4301C31.539 28.4301 29.9956 29.9738 29.9956 31.8711C29.9956 32.8014 30.3702 33.6757 31.0116 34.3129C29.6695 35.0131 28.7356 36.2802 28.4419 37.7639C27.3868 36.5923 26.7383 35.0477 26.7383 33.3506C26.7383 29.7065 29.703 26.7418 33.3471 26.7418ZM29.3694 12.8983C29.4265 11.188 30.5391 9.71795 32.1867 9.21761C32.3843 9.15759 32.5263 8.98479 32.5473 8.77947C32.5684 8.57416 32.4641 8.37635 32.2828 8.27757C31.5038 7.85344 31.0199 7.03943 31.0199 6.15366C31.0199 4.82125 32.104 3.73716 33.4364 3.73716C34.7688 3.73716 35.8529 4.82125 35.8529 6.15366C35.8529 7.06619 35.3457 7.89095 34.5295 8.30658C34.3454 8.40036 34.2354 8.59542 34.2511 8.80148C34.2666 9.0078 34.4047 9.1841 34.6007 9.24912C36.1932 9.77638 37.2685 11.2331 37.3251 12.8981C36.2168 13.7375 34.8414 14.2419 33.3471 14.2419C31.8529 14.2419 30.4776 13.7376 29.3694 12.8983ZM33.3471 1.02432C36.9912 1.02432 39.9562 3.98899 39.9562 7.63312C39.9562 9.33068 39.3073 10.8757 38.2515 12.0474C37.9642 10.6137 37.0728 9.37247 35.7939 8.65944C36.4773 8.01949 36.8772 7.12121 36.8772 6.15366C36.8772 4.25632 35.3337 2.71284 33.4364 2.71284C31.539 2.71284 29.9956 4.25632 29.9956 6.15366C29.9956 7.08395 30.3702 7.95822 31.0119 8.59542C29.6696 9.29585 28.7356 10.5629 28.4419 12.0464C27.3868 10.8749 26.7383 9.33021 26.7383 7.63312C26.7383 3.98899 29.703 1.02432 33.3471 1.02432ZM1.02432 7.63312C1.02432 3.98899 3.98899 1.02432 7.63312 1.02432C11.2772 1.02432 14.2419 3.98899 14.2419 7.63312C14.2419 9.33071 13.593 10.8758 12.5373 12.0475C12.25 10.6138 11.3588 9.37269 10.0796 8.65944C10.7633 8.01949 11.1632 7.12121 11.1632 6.15366C11.1632 4.25632 9.61973 2.71284 7.7224 2.71284C5.82506 2.71284 4.28133 4.25632 4.28133 6.15366C4.28133 7.08395 4.65619 7.95822 5.29764 8.59542C3.95557 9.29585 3.02166 10.5629 2.72794 12.0464C1.6728 10.8749 1.02432 9.33021 1.02432 7.63312ZM3.65545 12.8983C3.7125 11.188 4.82509 9.71795 6.47276 9.21761C6.67032 9.15759 6.81236 8.98479 6.83337 8.77947C6.85438 8.57416 6.75009 8.37635 6.56879 8.27757C5.7898 7.85344 5.30565 7.03943 5.30565 6.15366C5.30565 4.82125 6.38973 3.73716 7.7224 3.73716C9.05481 3.73716 10.1389 4.82125 10.1389 6.15366C10.1389 7.06594 9.63174 7.89095 8.81549 8.30658C8.63118 8.40036 8.52139 8.59567 8.53715 8.80173C8.55265 9.0078 8.6907 9.1841 8.88676 9.24912C10.479 9.77663 11.5544 11.2334 11.6109 12.8983C10.5027 13.7376 9.12733 14.2419 7.63312 14.2419C6.13894 14.2419 4.76363 13.7376 3.65545 12.8983ZM20.4864 13.8886C24.1305 13.8886 27.0952 16.8532 27.0952 20.4974C27.0952 24.1415 24.1305 27.1062 20.4864 27.1062C16.8422 27.1062 13.8776 24.1415 13.8776 20.4974C13.8776 16.8532 16.8422 13.8886 20.4864 13.8886Z" fill="#103EB4"/>
<path d="M17.0403 20.7221C17.5382 21.2058 17.7653 21.9027 17.6478 22.5864L17.3859 24.1069C17.3527 24.299 17.4315 24.4933 17.589 24.6078C17.7466 24.7228 17.9556 24.7383 18.1282 24.6476L19.5116 23.9231C20.1223 23.6035 20.8505 23.6035 21.4612 23.9231L22.8446 24.6476C22.9194 24.6868 23.0009 24.7061 23.0822 24.7061C23.1885 24.7061 23.2945 24.6731 23.3838 24.6078C23.5414 24.4933 23.6201 24.299 23.5869 24.1069L23.325 22.5867C23.2075 21.9027 23.4346 21.2058 23.9325 20.7221L25.0433 19.6435C25.1834 19.5077 25.2339 19.3039 25.1736 19.1184C25.1136 18.9325 24.953 18.7973 24.7597 18.7692L23.2158 18.5457C22.532 18.4466 21.9406 18.018 21.634 17.3991L20.9453 16.0094C20.7722 15.6603 20.2006 15.6603 20.0275 16.0094L19.3388 17.3991C19.0322 18.018 18.4408 18.4466 17.7571 18.5457L16.2131 18.7692C16.0198 18.7973 15.8592 18.9325 15.7992 19.1184C15.7389 19.3039 15.7895 19.5077 15.9295 19.6435L17.0403 20.7221ZM17.9036 19.5595C18.9209 19.4122 19.8004 18.7745 20.2566 17.8537L20.4864 17.3901L20.7162 17.8537C21.1724 18.7745 22.0519 19.4122 23.0692 19.5595L23.5829 19.6338L23.2188 19.9874C22.4783 20.7063 22.1407 21.7429 22.3157 22.7605L22.4015 23.2594L21.9364 23.0158C21.0288 22.5402 19.9445 22.5402 19.0365 23.0158L18.5713 23.2594L18.6571 22.7602C18.8321 21.7429 18.4945 20.7063 17.7541 19.9874L17.3899 19.6338L17.9036 19.5595Z" fill="#103EB4"/>
</svg>
