<svg width="22" height="22" viewBox="0 0 22 22" fill="none" xmlns="http://www.w3.org/2000/svg">
<path d="M11 0C17.0656 0 22 4.9344 22 11C22 17.0656 17.0656 22 11 22C4.9344 22 0 17.0656 0 11C0 4.9344 4.9344 0 11 0ZM7.6019 11.6481L12.1853 16.2314C12.364 16.4102 12.5987 16.5 12.8333 16.5C13.068 16.5 13.3027 16.4102 13.4814 16.2314C13.8398 15.873 13.8398 15.2937 13.4814 14.9353L9.54615 11L13.4814 7.06475C13.8398 6.70635 13.8398 6.127 13.4814 5.7686C13.123 5.4102 12.5437 5.4102 12.1853 5.7686L7.6019 10.3519C7.2435 10.7103 7.2435 11.2897 7.6019 11.6481Z" fill="#3658B7"/>
</svg>
