<svg width="22" height="22" viewBox="0 0 22 22" fill="none" xmlns="http://www.w3.org/2000/svg">
<path d="M11 0C4.9344 0 0 4.9344 0 11C0 17.0656 4.9344 22 11 22C17.0656 22 22 17.0656 22 11C22 4.9344 17.0656 0 11 0ZM14.3981 11.6481L9.81475 16.2314C9.636 16.4102 9.40135 16.5 9.16665 16.5C8.932 16.5 8.6973 16.4102 8.51855 16.2314C8.16015 15.873 8.16015 15.2937 8.51855 14.9353L12.4538 11L8.5186 7.06475C8.1602 6.70635 8.1602 6.127 8.5186 5.7686C8.877 5.4102 9.45635 5.4102 9.81475 5.7686L14.3981 10.3519C14.7565 10.7103 14.7565 11.2897 14.3981 11.6481Z" fill="#3658B7"/>
</svg>
