<svg width="64" height="64" viewBox="0 0 64 64" fill="none" xmlns="http://www.w3.org/2000/svg">
<rect width="64" height="64" fill="white"/>
<path opacity="0.1" d="M36.771 53.9872C38.5686 51.8522 40.3589 49.7364 42.1371 47.6422C44.3097 45.0806 46.2936 42.4721 48.0815 39.8204C49.8694 37.1686 51.2847 34.4872 52.3251 31.7756C53.3702 29.0638 53.8904 26.2771 53.8904 23.4175C53.8904 20.02 53.0871 16.8627 51.4759 13.943C49.8694 11.0236 47.617 8.68478 44.7283 6.92494C41.8371 5.16946 38.4573 4.28809 34.5839 4.28809C29.9363 4.28809 25.9879 5.19704 22.7387 7.01494C19.4895 8.8326 17.0194 11.1712 15.321 14.033C13.6202 16.8927 12.771 19.9624 12.771 23.2394C12.771 24.7295 13.0541 26.4571 13.6202 28.4229C14.1863 30.3908 15.0065 32.2534 16.0782 34.0111C17.15 35.7688 18.4637 37.0936 20.0121 37.9875L26.3605 32.1787C25.2863 31.0464 24.4371 29.7199 23.8105 28.2C23.1863 26.6802 22.8718 24.9373 22.8718 22.9718C22.8718 21.9579 23.0799 20.9587 23.4984 19.9774C23.9145 18.9932 24.5121 18.0692 25.2863 17.2055C26.0605 16.3416 27.0742 15.6407 28.325 15.1048C29.5782 14.5689 31.0662 14.3011 32.796 14.3011C34.2259 14.3011 35.5516 14.5089 36.7734 14.927C37.9928 15.3428 39.0815 15.9687 40.0371 16.8025C40.9879 17.6386 41.7331 18.6801 42.2702 19.9321C42.8049 21.1841 43.0759 22.6437 43.0759 24.3114C43.0759 27.1708 42.2847 30.1529 40.7049 33.2502C39.1275 36.3499 36.967 39.5524 34.2258 42.8601C31.4823 46.1671 28.3831 49.578 24.9283 53.0933C21.4734 56.611 17.8976 60.2444 14.2008 64H55.3202V53.9872H36.771Z" fill="#1A41AD"/>
<path d="M52.7484 61.8552H8L10.2161 59.6023C13.7629 55.9992 17.196 52.509 20.5202 49.1255C23.9484 45.638 27.0548 42.2178 29.7548 38.9594C32.4379 35.7247 34.5742 32.5582 36.1056 29.5476C37.6008 26.6144 38.3605 23.7709 38.3605 21.0949C38.3605 19.584 38.1185 18.2526 37.6395 17.1375C37.1726 16.0437 36.5145 15.1198 35.6847 14.3911C34.8427 13.6548 33.8653 13.0936 32.7839 12.7246C31.6806 12.3472 30.4589 12.1561 29.15 12.1561C27.5774 12.1561 26.2153 12.3975 25.1048 12.8736C24.0016 13.3449 23.1064 13.9609 22.4411 14.7039C21.7444 15.4802 21.2073 16.3125 20.8419 17.1774C20.4815 18.0223 20.3 18.8886 20.3 19.7553C20.3 21.5712 20.5879 23.1929 21.1589 24.5751C21.7322 25.9677 22.5185 27.1955 23.4935 28.2242L24.2435 29.0156L16.5137 36.0917L15.8339 35.6993C14.1307 34.718 12.679 33.2555 11.5201 31.3524C10.4 29.5169 9.53385 27.5485 8.94595 25.5024C8.35562 23.4501 8.05564 21.6061 8.05564 20.0228C8.05564 16.5639 8.96288 13.282 10.7556 10.2687C12.5411 7.25662 15.1734 4.76468 18.5726 2.86282C21.9669 0.963144 26.1258 0 30.9379 0C34.9879 0 38.5879 0.939435 41.6411 2.79194C44.6823 4.64468 47.0823 7.13976 48.771 10.2094C50.4621 13.2738 51.3186 16.6355 51.3186 20.2009C51.3186 23.1823 50.7669 26.1237 49.6807 28.944L49.296 29.9441L47.2952 29.1738L47.6823 28.1737C48.6718 25.5999 49.175 22.9178 49.175 20.2009C49.175 17.0015 48.4081 13.9882 46.8935 11.2437C45.3863 8.50573 43.2428 6.27847 40.5258 4.62363C37.8161 2.97798 34.5911 2.14355 30.9379 2.14355C26.4984 2.14355 22.6903 3.01476 19.6201 4.73347C16.5524 6.44855 14.1911 8.67944 12.5992 11.3632C11.0072 14.0412 10.1992 16.9546 10.1992 20.0228C10.1992 21.4055 10.4701 23.0497 11.0072 24.9097C11.5419 26.7721 12.3306 28.5644 13.3492 30.2364C14.1669 31.5736 15.1395 32.6436 16.2524 33.4256L21.2218 28.8777C20.3919 27.8441 19.7048 26.6756 19.175 25.3914C18.5 23.7491 18.1565 21.8526 18.1565 19.7553C18.1565 18.5983 18.396 17.4496 18.8677 16.3406C19.325 15.2594 19.9903 14.2268 20.8444 13.2738C21.7202 12.2961 22.8694 11.4982 24.2605 10.9028C25.6395 10.312 27.2847 10.0127 29.15 10.0127C30.696 10.0127 32.15 10.2426 33.4758 10.6962C34.8234 11.1554 36.0427 11.8563 37.0976 12.779C38.1718 13.7221 39.0161 14.904 39.6113 16.2936C40.204 17.677 40.5041 19.2922 40.5041 21.0949C40.5041 24.1125 39.6669 27.2836 38.0169 30.5207C36.4129 33.6714 34.1895 36.9709 31.4049 40.3273C28.6661 43.6319 25.5185 47.0976 22.0492 50.6279C19.1556 53.5733 16.1774 56.6004 13.1169 59.7114H50.6024V51.8422H30.8242L32.3073 50.0802C34.2742 47.7467 36.0282 45.6702 37.6758 43.7318C37.7823 43.6079 37.8863 43.4843 37.9903 43.3604L38.6798 42.54L40.3202 43.9193L39.6307 44.7397C39.5242 44.8665 39.4177 44.993 39.3089 45.12C38.0919 46.5542 36.8121 48.0646 35.4331 49.6989H52.7484V61.8552Z" fill="#1A41AD"/>
</svg>
