<svg width="44" height="44" viewBox="0 0 44 44" fill="none" xmlns="http://www.w3.org/2000/svg">
<path d="M25.5017 3.48503C25.5017 1.56326 23.9309 0 22 0C20.0691 0 18.4983 1.56326 18.4983 3.48503C18.4983 5.40681 20.0691 6.97034 22 6.97034C23.9309 6.97034 25.5017 5.40681 25.5017 3.48503ZM19.5983 3.48503C19.5983 2.16992 20.6757 1.1 22 1.1C23.3242 1.1 24.4017 2.16992 24.4017 3.48503C24.4017 4.80042 23.3242 5.87034 22 5.87034C20.6757 5.87034 19.5983 4.80042 19.5983 3.48503Z" fill="#103EB4"/>
<path d="M35.0854 5.41455C35.0819 5.41455 35.0787 5.41455 35.0752 5.41455C34.1452 5.41455 33.2721 5.77576 32.6161 6.4321C31.9573 7.0906 31.5961 7.9677 31.5988 8.9012C31.6012 9.83362 31.9667 10.7113 32.6279 11.3722C33.2888 12.0333 34.1664 12.3989 35.0988 12.4013C35.1021 12.4013 35.1056 12.4013 35.1088 12.4013C36.0388 12.4013 36.9119 12.0403 37.5679 11.384C38.2267 10.7255 38.5882 9.84839 38.5855 8.91462C38.5828 7.9822 38.2173 7.10457 37.5564 6.44365C36.8955 5.78274 36.0178 5.41724 35.0854 5.41455ZM36.7902 10.6063C36.3398 11.0563 35.738 11.3045 35.1018 11.3013C34.4621 11.2997 33.8597 11.0486 33.4056 10.5944C32.9515 10.1403 32.7004 9.53794 32.6988 8.89824C32.6969 8.25962 32.9437 7.65994 33.3938 7.20984C33.8423 6.76135 34.4393 6.51455 35.0755 6.51455C35.0776 6.51455 35.08 6.51455 35.0822 6.51455C35.7222 6.51643 36.3245 6.76753 36.7787 7.22139C37.2325 7.67551 37.4836 8.27788 37.4855 8.91785C37.4874 9.55647 37.2403 10.1562 36.7902 10.6063Z" fill="#103EB4"/>
<path d="M44 22.0002C44 20.0693 42.4367 18.4985 40.515 18.4985C38.5932 18.4985 37.0297 20.0693 37.0297 22.0002C37.0297 23.9311 38.5932 25.5019 40.515 25.5019C42.4367 25.5019 44 23.9311 44 22.0002ZM38.1297 22.0002C38.1297 20.676 39.1996 19.5985 40.515 19.5985C41.8301 19.5985 42.9 20.676 42.9 22.0002C42.9 23.3245 41.8301 24.4019 40.515 24.4019C39.1996 24.4019 38.1297 23.3245 38.1297 22.0002Z" fill="#103EB4"/>
<path d="M35.0752 38.5854C35.0787 38.5854 35.0819 38.5854 35.0854 38.5854C36.0178 38.5827 36.8955 38.2172 37.5564 37.5563C38.2173 36.8954 38.5828 36.0177 38.5855 35.0853C38.5882 34.1516 38.2267 33.2745 37.5679 32.616C36.9094 31.9575 36.0525 31.5938 35.0988 31.5987C34.1664 31.6011 33.2888 31.9666 32.6279 32.6278C31.9667 33.2887 31.6012 34.1663 31.5988 35.0988C31.5961 36.0322 31.9573 36.9093 32.6161 37.5678C33.2721 38.2242 34.1452 38.5854 35.0752 38.5854ZM33.4056 33.4055C33.8597 32.9514 34.4621 32.7003 35.1018 32.6987C35.1042 32.6987 35.1064 32.6987 35.1088 32.6987C35.7447 32.6987 36.3417 32.9452 36.7902 33.3937C37.2403 33.8438 37.4874 34.4435 37.4855 35.0821C37.4836 35.7221 37.2325 36.3244 36.7787 36.7786C36.3245 37.2324 35.7222 37.4835 35.0822 37.4854C35.08 37.4854 35.0776 37.4854 35.0755 37.4854C34.4393 37.4854 33.8423 37.2386 33.3938 36.7901C32.9437 36.34 32.6969 35.7403 32.6988 35.1017C32.7004 34.462 32.9515 33.8596 33.4056 33.4055Z" fill="#103EB4"/>
<path d="M18.4983 40.5151C18.4983 42.4369 20.0691 44.0001 22 44.0001C23.9309 44.0001 25.5017 42.4369 25.5017 40.5151C25.5017 38.5933 23.9309 37.0298 22 37.0298C20.0691 37.0298 18.4983 38.5933 18.4983 40.5151ZM24.4017 40.5151C24.4017 41.8302 23.3242 42.9001 22 42.9001C20.6757 42.9001 19.5983 41.8302 19.5983 40.5151C19.5983 39.1997 20.6757 38.1298 22 38.1298C23.3242 38.1298 24.4017 39.1997 24.4017 40.5151Z" fill="#103EB4"/>
<path d="M8.91476 38.5854C8.91825 38.5854 8.92147 38.5854 8.92497 38.5854C9.85497 38.5854 10.728 38.2241 11.3841 37.5678C12.0429 36.9093 12.4041 36.0322 12.4014 35.0987C12.399 34.1663 12.0335 33.2886 11.3723 32.6277C10.7114 31.9666 9.83376 31.601 8.90133 31.5986C7.99174 31.6075 7.09074 31.9574 6.43224 32.6159C5.77348 33.2744 5.412 34.1515 5.41469 35.0853C5.41737 36.0177 5.78288 36.8953 6.44379 37.5563C7.1047 38.2172 7.98234 38.5827 8.91476 38.5854ZM7.20998 33.3937C7.65846 32.9452 8.25546 32.6986 8.8914 32.6986C8.89381 32.6986 8.89596 32.6986 8.89838 32.6986C9.53808 32.7002 10.1404 32.9513 10.5946 33.4055C11.0487 33.8596 11.2998 34.462 11.3014 35.1017C11.3033 35.7403 11.0565 36.34 10.6064 36.7901C10.1579 37.2385 9.5609 37.4854 8.9247 37.4854C8.92255 37.4854 8.92013 37.4854 8.91798 37.4854C8.27802 37.4835 7.67565 37.2324 7.22152 36.7785C6.76767 36.3244 6.51657 35.722 6.51469 35.0821C6.51281 34.4434 6.75988 33.8438 7.20998 33.3937Z" fill="#103EB4"/>
<path d="M3.48503 25.5019C5.40681 25.5019 6.97034 23.9311 6.97034 22.0002C6.97034 20.0693 5.40681 18.4985 3.48503 18.4985C1.56326 18.4985 0 20.0693 0 22.0002C0 23.9311 1.56326 25.5019 3.48503 25.5019ZM3.48503 19.5985C4.80042 19.5985 5.87034 20.676 5.87034 22.0002C5.87034 23.3245 4.80042 24.4019 3.48503 24.4019C2.16992 24.4019 1.1 23.3245 1.1 22.0002C1.1 20.676 2.16992 19.5985 3.48503 19.5985Z" fill="#103EB4"/>
<path d="M8.8914 12.4013C8.89462 12.4013 8.89811 12.4013 8.90133 12.4013C9.83376 12.3989 10.7114 12.0333 11.3723 11.3722C12.0335 10.7113 12.399 9.83362 12.4014 8.9012C12.4041 7.9677 12.0429 7.0906 11.3841 6.4321C10.728 5.77576 9.85497 5.41455 8.92497 5.41455C8.92147 5.41455 8.91825 5.41455 8.91476 5.41455C7.98234 5.41724 7.1047 5.78274 6.44379 6.44365C5.78288 7.10457 5.41737 7.9822 5.41469 8.91462C5.412 9.84839 5.77348 10.7255 6.43224 11.384C7.08859 12.0403 7.96139 12.4013 8.8914 12.4013ZM7.22152 7.22139C7.67565 6.76753 8.27802 6.51643 8.91798 6.51455C8.92013 6.51455 8.92255 6.51455 8.9247 6.51455C9.5609 6.51455 10.1579 6.76135 10.6064 7.20984C11.0565 7.65994 11.3033 8.25962 11.3014 8.89824C11.2998 9.53794 11.0487 10.1403 10.5946 10.5944C10.1404 11.0486 9.53808 11.2997 8.89838 11.3013C8.89596 11.3013 8.89381 11.3013 8.8914 11.3013C8.25546 11.3013 7.65846 11.0547 7.20998 10.6063C6.75988 10.1562 6.51281 9.55647 6.51469 8.91785C6.51657 8.27788 6.76767 7.67551 7.22152 7.22139Z" fill="#103EB4"/>
<path d="M12.9938 6.36972C13.0846 6.36972 13.1764 6.34743 13.2613 6.29989C14.4021 5.66315 15.6154 5.15155 16.8669 4.7788C17.158 4.69206 17.324 4.3859 17.2372 4.09479C17.1505 3.80287 16.8433 3.63852 16.5532 3.72445C15.2241 4.12003 13.9364 4.66359 12.7252 5.33954C12.4599 5.48752 12.3648 5.8224 12.5131 6.08773C12.6138 6.2682 12.801 6.36972 12.9938 6.36972Z" fill="#103EB4"/>
<path d="M30.4987 6.17297C30.5819 6.21809 30.6716 6.23931 30.76 6.23931C30.9555 6.23931 31.1448 6.13511 31.2442 5.95115C31.3887 5.68394 31.2893 5.35012 31.0224 5.20564C29.8042 4.54634 28.5095 4.01997 27.174 3.64077C26.8818 3.55886 26.5778 3.72778 26.4948 4.0197C26.4118 4.31189 26.5816 4.61589 26.8737 4.69888C28.1316 5.05606 29.3514 5.55208 30.4987 6.17297Z" fill="#103EB4"/>
<path d="M37.8434 12.444C37.5781 12.592 37.483 12.9269 37.6312 13.1922C38.268 14.3331 38.7796 15.5464 39.1523 16.7978C39.2235 17.0369 39.4424 17.1913 39.6792 17.1913C39.7313 17.1913 39.784 17.1838 39.8363 17.1682C40.1275 17.0814 40.2934 16.7753 40.2067 16.4842C39.8111 15.1551 39.2675 13.8674 38.5916 12.6562C38.4436 12.3906 38.1082 12.2958 37.8434 12.444Z" fill="#103EB4"/>
<path d="M38.7256 30.9538C39.3849 29.7353 39.9115 28.4406 40.2904 27.1054C40.3734 26.8132 40.2037 26.5092 39.9115 26.4262C39.6199 26.3435 39.3156 26.5132 39.2323 26.8051C38.8752 28.0628 38.3791 29.2826 37.7582 30.4301C37.6138 30.6973 37.7131 31.0311 37.9801 31.1756C38.0633 31.2207 38.153 31.2419 38.2414 31.2419C38.4369 31.2419 38.6262 31.1377 38.7256 30.9538Z" fill="#103EB4"/>
<path d="M30.7387 37.5622C29.5979 38.1989 28.3846 38.7105 27.1331 39.0833C26.842 39.17 26.676 39.4762 26.7628 39.7673C26.8339 40.0063 27.0528 40.1607 27.2897 40.1607C27.3418 40.1607 27.3944 40.1532 27.4468 40.1376C28.7759 39.7421 30.0636 39.1985 31.2748 38.5226C31.5401 38.3746 31.6352 38.0397 31.4869 37.7744C31.3387 37.5088 31.0041 37.414 30.7387 37.5622Z" fill="#103EB4"/>
<path d="M13.5013 37.6893C13.2344 37.5451 12.9005 37.6442 12.7558 37.9111C12.6113 38.1783 12.7107 38.5121 12.9776 38.6566C14.1961 39.3159 15.4908 39.8425 16.826 40.2215C16.8762 40.2357 16.9267 40.2427 16.9764 40.2427C17.2162 40.2427 17.4364 40.0845 17.5052 39.8425C17.5882 39.5504 17.4184 39.2463 17.1263 39.1634C15.8686 38.8062 14.6488 38.3102 13.5013 37.6893Z" fill="#103EB4"/>
<path d="M6.15657 31.4183C6.4219 31.2703 6.51697 30.9354 6.36872 30.6701C5.73198 29.5293 5.22039 28.316 4.84763 27.0645C4.76062 26.7728 4.45339 26.6069 4.16362 26.6942C3.87251 26.7809 3.70654 27.0871 3.79329 27.3782C4.18887 28.7072 4.73242 29.995 5.40837 31.2061C5.50908 31.3866 5.69626 31.4881 5.88909 31.4881C5.97986 31.4881 6.0717 31.4658 6.15657 31.4183Z" fill="#103EB4"/>
<path d="M5.2744 12.909C4.6151 14.1274 4.08846 15.4221 3.70953 16.7574C3.62655 17.0496 3.79627 17.3536 4.08846 17.4366C4.13868 17.4508 4.18917 17.4578 4.23885 17.4578C4.47867 17.4578 4.69889 17.2996 4.76764 17.0576C5.12481 15.8 5.62083 14.5802 6.24173 13.4327C6.38621 13.1655 6.28685 12.8317 6.01991 12.6872C5.75296 12.5422 5.41861 12.6421 5.2744 12.909Z" fill="#103EB4"/>
<path d="M22 10.6724C15.754 10.6724 10.6724 15.754 10.6724 22C10.6724 28.246 15.754 33.3276 22 33.3276C25.0406 33.3276 27.7993 32.1172 29.8361 30.1606C29.8695 30.1349 29.901 30.1097 29.9272 30.0778C32.0228 28.021 33.3276 25.1613 33.3276 22C33.3276 15.754 28.246 10.6724 22 10.6724ZM22 11.7724C27.6396 11.7724 32.2276 16.3604 32.2276 22C32.2276 24.5965 31.2472 26.9627 29.6473 28.7682C28.1339 25.9804 25.2182 24.2172 22 24.2172C18.7914 24.2172 15.8658 25.9818 14.3515 28.7669C12.7524 26.9615 11.7724 24.5958 11.7724 22C11.7724 16.3604 16.3604 11.7724 22 11.7724ZM15.1674 29.5887C16.4394 26.9854 19.0852 25.3172 22 25.3172C24.9234 25.3172 27.5612 26.9823 28.8332 29.5882C27.0198 31.2229 24.628 32.2276 22 32.2276C19.3723 32.2276 16.9808 31.223 15.1674 29.5887Z" fill="#103EB4"/>
<path d="M22 22.5502C24.3958 22.5502 26.3449 20.6011 26.3449 18.2053C26.3449 15.8095 24.3958 13.8604 22 13.8604C19.6042 13.8604 17.655 15.8095 17.655 18.2053C17.655 20.6011 19.6042 22.5502 22 22.5502ZM22 14.9604C23.7894 14.9604 25.2449 16.4159 25.2449 18.2053C25.2449 19.9947 23.7894 21.4502 22 21.4502C20.2106 21.4502 18.755 19.9947 18.755 18.2053C18.755 16.4159 20.2106 14.9604 22 14.9604Z" fill="#103EB4"/>
</svg>
